<svg xmlns="http://www.w3.org/2000/svg" xmlns:xlink="http://www.w3.org/1999/xlink" width="500" zoomAndPan="magnify" viewBox="0 0 375 374.999991" height="500" preserveAspectRatio="xMidYMid meet" version="1.0"><defs><g/></defs><g fill="#ff00ff" fill-opacity="1"><g transform="translate(16.983426, 216.71395)"><g><path d="M 44.359375 -54.5 L 55.625 -54.5 C 56.582031 -54.5 57.273438 -54.28125 57.703125 -53.84375 C 58.140625 -53.414062 58.359375 -52.722656 58.359375 -51.765625 L 58.359375 -22.40625 C 58.359375 -20.789062 58.289062 -19.285156 58.15625 -17.890625 C 58.03125 -16.503906 57.644531 -14.878906 57 -13.015625 L 53.203125 -2.71875 C 52.953125 -1.96875 52.585938 -1.328125 52.109375 -0.796875 C 51.628906 -0.265625 50.988281 0 50.1875 0 L 40.109375 0 C 39.304688 0 38.578125 -0.175781 37.921875 -0.53125 C 37.265625 -0.882812 36.832031 -1.460938 36.625 -2.265625 L 33.15625 -14.609375 C 33 -15.109375 32.804688 -15.445312 32.578125 -15.625 C 32.359375 -15.800781 32.09375 -15.890625 31.78125 -15.890625 L 31.109375 -15.890625 C 30.804688 -15.890625 30.539062 -15.800781 30.3125 -15.625 C 30.082031 -15.445312 29.894531 -15.109375 29.75 -14.609375 L 26.1875 -2.265625 C 25.988281 -1.515625 25.609375 -0.945312 25.046875 -0.5625 C 24.492188 -0.1875 23.816406 0 23.015625 0 L 13.015625 0 C 12.210938 0 11.519531 -0.25 10.9375 -0.75 C 10.351562 -1.257812 9.9375 -1.914062 9.6875 -2.71875 L 5.90625 -13.171875 C 5.25 -15.035156 4.859375 -16.660156 4.734375 -18.046875 C 4.609375 -19.441406 4.546875 -20.945312 4.546875 -22.5625 L 4.546875 -51.765625 C 4.546875 -52.722656 4.757812 -53.414062 5.1875 -53.84375 C 5.613281 -54.28125 6.304688 -54.5 7.265625 -54.5 L 18.921875 -54.5 C 19.878906 -54.5 20.570312 -54.28125 21 -53.84375 C 21.425781 -53.414062 21.640625 -52.722656 21.640625 -51.765625 L 21.640625 -23.921875 L 26.03125 -33.453125 C 26.4375 -34.304688 26.96875 -34.910156 27.625 -35.265625 C 28.28125 -35.617188 29.085938 -35.796875 30.046875 -35.796875 L 33.234375 -35.796875 C 34.191406 -35.796875 34.992188 -35.617188 35.640625 -35.265625 C 36.296875 -34.910156 36.828125 -34.304688 37.234375 -33.453125 L 41.625 -23.921875 L 41.625 -51.765625 C 41.625 -52.722656 41.835938 -53.414062 42.265625 -53.84375 C 42.703125 -54.28125 43.398438 -54.5 44.359375 -54.5 Z M 44.359375 -54.5 "/></g></g></g><g fill="#ff00ff" fill-opacity="1"><g transform="translate(79.873169, 216.71395)"><g><path d="M 24.984375 -38.59375 L 21.421875 -27.09375 L 33.296875 -27.09375 L 29.75 -38.59375 C 29.539062 -39.050781 29.320312 -39.378906 29.09375 -39.578125 C 28.875 -39.785156 28.613281 -39.890625 28.3125 -39.890625 L 26.421875 -39.890625 C 26.109375 -39.890625 25.835938 -39.785156 25.609375 -39.578125 C 25.390625 -39.378906 25.179688 -39.050781 24.984375 -38.59375 Z M 20.65625 -2.71875 C 20.65625 -1.757812 20.441406 -1.066406 20.015625 -0.640625 C 19.585938 -0.210938 18.894531 0 17.9375 0 L 6.8125 0 C 5.851562 0 5.160156 -0.210938 4.734375 -0.640625 C 4.304688 -1.066406 4.09375 -1.757812 4.09375 -2.71875 L 4.09375 -22.703125 C 4.09375 -24.222656 4.332031 -25.960938 4.8125 -27.921875 C 5.289062 -29.890625 6.03125 -32.1875 7.03125 -34.8125 L 13.625 -52 C 13.925781 -52.851562 14.390625 -53.484375 15.015625 -53.890625 C 15.648438 -54.296875 16.472656 -54.5 17.484375 -54.5 L 37.84375 -54.5 C 38.800781 -54.5 39.59375 -54.296875 40.21875 -53.890625 C 40.851562 -53.484375 41.320312 -52.851562 41.625 -52 L 48.21875 -34.8125 C 49.226562 -32.1875 49.972656 -29.890625 50.453125 -27.921875 C 50.929688 -25.960938 51.171875 -24.222656 51.171875 -22.703125 L 51.171875 -2.71875 C 51.171875 -1.757812 50.953125 -1.066406 50.515625 -0.640625 C 50.085938 -0.210938 49.394531 0 48.4375 0 L 37.015625 0 C 36.003906 0 35.257812 -0.210938 34.78125 -0.640625 C 34.300781 -1.066406 34.0625 -1.757812 34.0625 -2.71875 L 34.0625 -13.328125 L 20.65625 -13.328125 Z M 20.65625 -2.71875 "/></g></g></g><g fill="#ff00ff" fill-opacity="1"><g transform="translate(135.119279, 216.71395)"><g><path d="M 22.328125 -40.875 L 22.328125 -31.1875 L 28 -31.1875 C 29.3125 -31.1875 30.191406 -31.523438 30.640625 -32.203125 C 31.097656 -32.890625 31.328125 -33.734375 31.328125 -34.734375 L 31.328125 -37.3125 C 31.328125 -38.320312 31.097656 -39.164062 30.640625 -39.84375 C 30.191406 -40.53125 29.3125 -40.875 28 -40.875 Z M 19.609375 0 L 7.953125 0 C 6.992188 0 6.296875 -0.210938 5.859375 -0.640625 C 5.429688 -1.066406 5.21875 -1.757812 5.21875 -2.71875 L 5.21875 -51.765625 C 5.21875 -52.722656 5.429688 -53.414062 5.859375 -53.84375 C 6.296875 -54.28125 6.992188 -54.5 7.953125 -54.5 L 33.15625 -54.5 C 38.800781 -54.5 42.695312 -53.320312 44.84375 -50.96875 C 46.988281 -48.625 48.0625 -45.585938 48.0625 -41.859375 L 48.0625 -38.375 C 48.0625 -36.25 47.742188 -34.441406 47.109375 -32.953125 C 46.484375 -31.472656 45.390625 -30.40625 43.828125 -29.75 C 46.546875 -29.445312 48.75 -28.332031 50.4375 -26.40625 C 52.132812 -24.488281 52.984375 -21.941406 52.984375 -18.765625 L 52.984375 -2.71875 C 52.984375 -1.757812 52.765625 -1.066406 52.328125 -0.640625 C 51.898438 -0.210938 51.207031 0 50.25 0 L 38.53125 0 C 37.570312 0 36.875 -0.210938 36.4375 -0.640625 C 36.007812 -1.066406 35.796875 -1.757812 35.796875 -2.71875 L 35.796875 -14.3125 C 35.796875 -15.414062 35.582031 -16.234375 35.15625 -16.765625 C 34.726562 -17.296875 33.984375 -17.5625 32.921875 -17.5625 L 22.328125 -17.5625 L 22.328125 -2.71875 C 22.328125 -1.757812 22.113281 -1.066406 21.6875 -0.640625 C 21.257812 -0.210938 20.566406 0 19.609375 0 Z M 19.609375 0 "/></g></g></g><g fill="#ff00ff" fill-opacity="1"><g transform="translate(191.349213, 216.71395)"><g><path d="M 22.328125 -40.875 L 22.328125 -31.1875 L 28 -31.1875 C 29.3125 -31.1875 30.191406 -31.523438 30.640625 -32.203125 C 31.097656 -32.890625 31.328125 -33.734375 31.328125 -34.734375 L 31.328125 -37.3125 C 31.328125 -38.320312 31.097656 -39.164062 30.640625 -39.84375 C 30.191406 -40.53125 29.3125 -40.875 28 -40.875 Z M 19.609375 0 L 7.953125 0 C 6.992188 0 6.296875 -0.210938 5.859375 -0.640625 C 5.429688 -1.066406 5.21875 -1.757812 5.21875 -2.71875 L 5.21875 -51.765625 C 5.21875 -52.722656 5.429688 -53.414062 5.859375 -53.84375 C 6.296875 -54.28125 6.992188 -54.5 7.953125 -54.5 L 33.15625 -54.5 C 38.800781 -54.5 42.695312 -53.320312 44.84375 -50.96875 C 46.988281 -48.625 48.0625 -45.585938 48.0625 -41.859375 L 48.0625 -38.375 C 48.0625 -36.25 47.742188 -34.441406 47.109375 -32.953125 C 46.484375 -31.472656 45.390625 -30.40625 43.828125 -29.75 C 46.546875 -29.445312 48.75 -28.332031 50.4375 -26.40625 C 52.132812 -24.488281 52.984375 -21.941406 52.984375 -18.765625 L 52.984375 -2.71875 C 52.984375 -1.757812 52.765625 -1.066406 52.328125 -0.640625 C 51.898438 -0.210938 51.207031 0 50.25 0 L 38.53125 0 C 37.570312 0 36.875 -0.210938 36.4375 -0.640625 C 36.007812 -1.066406 35.796875 -1.757812 35.796875 -2.71875 L 35.796875 -14.3125 C 35.796875 -15.414062 35.582031 -16.234375 35.15625 -16.765625 C 34.726562 -17.296875 33.984375 -17.5625 32.921875 -17.5625 L 22.328125 -17.5625 L 22.328125 -2.71875 C 22.328125 -1.757812 22.113281 -1.066406 21.6875 -0.640625 C 21.257812 -0.210938 20.566406 0 19.609375 0 Z M 19.609375 0 "/></g></g></g><g fill="#ff00ff" fill-opacity="1"><g transform="translate(247.57916, 216.71395)"><g><path d="M 43.0625 0 L 7.953125 0 C 6.992188 0 6.296875 -0.210938 5.859375 -0.640625 C 5.429688 -1.066406 5.21875 -1.757812 5.21875 -2.71875 L 5.21875 -51.765625 C 5.21875 -52.722656 5.429688 -53.414062 5.859375 -53.84375 C 6.296875 -54.28125 6.992188 -54.5 7.953125 -54.5 L 43.0625 -54.5 C 44.019531 -54.5 44.710938 -54.28125 45.140625 -53.84375 C 45.578125 -53.414062 45.796875 -52.722656 45.796875 -51.765625 L 45.796875 -42.921875 C 45.796875 -41.960938 45.578125 -41.265625 45.140625 -40.828125 C 44.710938 -40.398438 44.019531 -40.1875 43.0625 -40.1875 L 22.171875 -40.1875 L 22.171875 -34.359375 L 36.9375 -34.359375 C 37.894531 -34.359375 38.585938 -34.144531 39.015625 -33.71875 C 39.441406 -33.289062 39.65625 -32.597656 39.65625 -31.640625 L 39.65625 -23.53125 C 39.65625 -22.570312 39.441406 -21.878906 39.015625 -21.453125 C 38.585938 -21.023438 37.894531 -20.8125 36.9375 -20.8125 L 22.171875 -20.8125 L 22.171875 -14.3125 L 43.0625 -14.3125 C 44.019531 -14.3125 44.710938 -14.09375 45.140625 -13.65625 C 45.578125 -13.226562 45.796875 -12.535156 45.796875 -11.578125 L 45.796875 -2.71875 C 45.796875 -1.757812 45.578125 -1.066406 45.140625 -0.640625 C 44.710938 -0.210938 44.019531 0 43.0625 0 Z M 43.0625 0 "/></g></g></g><g fill="#ff00ff" fill-opacity="1"><g transform="translate(297.073618, 216.71395)"><g><path d="M 19.296875 0 L 7.953125 0 C 6.992188 0 6.296875 -0.210938 5.859375 -0.640625 C 5.429688 -1.066406 5.21875 -1.757812 5.21875 -2.71875 L 5.21875 -51.765625 C 5.21875 -52.722656 5.429688 -53.414062 5.859375 -53.84375 C 6.296875 -54.28125 6.992188 -54.5 7.953125 -54.5 L 15.8125 -54.5 C 16.769531 -54.5 17.585938 -54.347656 18.265625 -54.046875 C 18.953125 -53.742188 19.625 -53.210938 20.28125 -52.453125 L 34.96875 -35.65625 L 34.96875 -51.765625 C 34.96875 -52.722656 35.179688 -53.414062 35.609375 -53.84375 C 36.035156 -54.28125 36.726562 -54.5 37.6875 -54.5 L 49.046875 -54.5 C 50.003906 -54.5 50.695312 -54.28125 51.125 -53.84375 C 51.550781 -53.414062 51.765625 -52.722656 51.765625 -51.765625 L 51.765625 -2.71875 C 51.765625 -1.757812 51.550781 -1.066406 51.125 -0.640625 C 50.695312 -0.210938 50.003906 0 49.046875 0 L 37.6875 0 C 36.726562 0 36.035156 -0.210938 35.609375 -0.640625 C 35.179688 -1.066406 34.96875 -1.757812 34.96875 -2.71875 L 34.96875 -12.03125 L 22.03125 -27.703125 L 22.03125 -2.71875 C 22.03125 -1.757812 21.8125 -1.066406 21.375 -0.640625 C 20.945312 -0.210938 20.253906 0 19.296875 0 Z M 19.296875 0 "/></g></g></g><g fill="#00ffff" fill-opacity="1"><g transform="translate(20.927514, 213.036022)"><g><path d="M 44.359375 -54.5 L 55.625 -54.5 C 56.582031 -54.5 57.273438 -54.28125 57.703125 -53.84375 C 58.140625 -53.414062 58.359375 -52.722656 58.359375 -51.765625 L 58.359375 -22.40625 C 58.359375 -20.789062 58.289062 -19.285156 58.15625 -17.890625 C 58.03125 -16.503906 57.644531 -14.878906 57 -13.015625 L 53.203125 -2.71875 C 52.953125 -1.96875 52.585938 -1.328125 52.109375 -0.796875 C 51.628906 -0.265625 50.988281 0 50.1875 0 L 40.109375 0 C 39.304688 0 38.578125 -0.175781 37.921875 -0.53125 C 37.265625 -0.882812 36.832031 -1.460938 36.625 -2.265625 L 33.15625 -14.609375 C 33 -15.109375 32.804688 -15.445312 32.578125 -15.625 C 32.359375 -15.800781 32.09375 -15.890625 31.78125 -15.890625 L 31.109375 -15.890625 C 30.804688 -15.890625 30.539062 -15.800781 30.3125 -15.625 C 30.082031 -15.445312 29.894531 -15.109375 29.75 -14.609375 L 26.1875 -2.265625 C 25.988281 -1.515625 25.609375 -0.945312 25.046875 -0.5625 C 24.492188 -0.1875 23.816406 0 23.015625 0 L 13.015625 0 C 12.210938 0 11.519531 -0.25 10.9375 -0.75 C 10.351562 -1.257812 9.9375 -1.914062 9.6875 -2.71875 L 5.90625 -13.171875 C 5.25 -15.035156 4.859375 -16.660156 4.734375 -18.046875 C 4.609375 -19.441406 4.546875 -20.945312 4.546875 -22.5625 L 4.546875 -51.765625 C 4.546875 -52.722656 4.757812 -53.414062 5.1875 -53.84375 C 5.613281 -54.28125 6.304688 -54.5 7.265625 -54.5 L 18.921875 -54.5 C 19.878906 -54.5 20.570312 -54.28125 21 -53.84375 C 21.425781 -53.414062 21.640625 -52.722656 21.640625 -51.765625 L 21.640625 -23.921875 L 26.03125 -33.453125 C 26.4375 -34.304688 26.96875 -34.910156 27.625 -35.265625 C 28.28125 -35.617188 29.085938 -35.796875 30.046875 -35.796875 L 33.234375 -35.796875 C 34.191406 -35.796875 34.992188 -35.617188 35.640625 -35.265625 C 36.296875 -34.910156 36.828125 -34.304688 37.234375 -33.453125 L 41.625 -23.921875 L 41.625 -51.765625 C 41.625 -52.722656 41.835938 -53.414062 42.265625 -53.84375 C 42.703125 -54.28125 43.398438 -54.5 44.359375 -54.5 Z M 44.359375 -54.5 "/></g></g></g><g fill="#00ffff" fill-opacity="1"><g transform="translate(83.817257, 213.036022)"><g><path d="M 24.984375 -38.59375 L 21.421875 -27.09375 L 33.296875 -27.09375 L 29.75 -38.59375 C 29.539062 -39.050781 29.320312 -39.378906 29.09375 -39.578125 C 28.875 -39.785156 28.613281 -39.890625 28.3125 -39.890625 L 26.421875 -39.890625 C 26.109375 -39.890625 25.835938 -39.785156 25.609375 -39.578125 C 25.390625 -39.378906 25.179688 -39.050781 24.984375 -38.59375 Z M 20.65625 -2.71875 C 20.65625 -1.757812 20.441406 -1.066406 20.015625 -0.640625 C 19.585938 -0.210938 18.894531 0 17.9375 0 L 6.8125 0 C 5.851562 0 5.160156 -0.210938 4.734375 -0.640625 C 4.304688 -1.066406 4.09375 -1.757812 4.09375 -2.71875 L 4.09375 -22.703125 C 4.09375 -24.222656 4.332031 -25.960938 4.8125 -27.921875 C 5.289062 -29.890625 6.03125 -32.1875 7.03125 -34.8125 L 13.625 -52 C 13.925781 -52.851562 14.390625 -53.484375 15.015625 -53.890625 C 15.648438 -54.296875 16.472656 -54.5 17.484375 -54.5 L 37.84375 -54.5 C 38.800781 -54.5 39.59375 -54.296875 40.21875 -53.890625 C 40.851562 -53.484375 41.320312 -52.851562 41.625 -52 L 48.21875 -34.8125 C 49.226562 -32.1875 49.972656 -29.890625 50.453125 -27.921875 C 50.929688 -25.960938 51.171875 -24.222656 51.171875 -22.703125 L 51.171875 -2.71875 C 51.171875 -1.757812 50.953125 -1.066406 50.515625 -0.640625 C 50.085938 -0.210938 49.394531 0 48.4375 0 L 37.015625 0 C 36.003906 0 35.257812 -0.210938 34.78125 -0.640625 C 34.300781 -1.066406 34.0625 -1.757812 34.0625 -2.71875 L 34.0625 -13.328125 L 20.65625 -13.328125 Z M 20.65625 -2.71875 "/></g></g></g><g fill="#00ffff" fill-opacity="1"><g transform="translate(139.063367, 213.036022)"><g><path d="M 22.328125 -40.875 L 22.328125 -31.1875 L 28 -31.1875 C 29.3125 -31.1875 30.191406 -31.523438 30.640625 -32.203125 C 31.097656 -32.890625 31.328125 -33.734375 31.328125 -34.734375 L 31.328125 -37.3125 C 31.328125 -38.320312 31.097656 -39.164062 30.640625 -39.84375 C 30.191406 -40.53125 29.3125 -40.875 28 -40.875 Z M 19.609375 0 L 7.953125 0 C 6.992188 0 6.296875 -0.210938 5.859375 -0.640625 C 5.429688 -1.066406 5.21875 -1.757812 5.21875 -2.71875 L 5.21875 -51.765625 C 5.21875 -52.722656 5.429688 -53.414062 5.859375 -53.84375 C 6.296875 -54.28125 6.992188 -54.5 7.953125 -54.5 L 33.15625 -54.5 C 38.800781 -54.5 42.695312 -53.320312 44.84375 -50.96875 C 46.988281 -48.625 48.0625 -45.585938 48.0625 -41.859375 L 48.0625 -38.375 C 48.0625 -36.25 47.742188 -34.441406 47.109375 -32.953125 C 46.484375 -31.472656 45.390625 -30.40625 43.828125 -29.75 C 46.546875 -29.445312 48.75 -28.332031 50.4375 -26.40625 C 52.132812 -24.488281 52.984375 -21.941406 52.984375 -18.765625 L 52.984375 -2.71875 C 52.984375 -1.757812 52.765625 -1.066406 52.328125 -0.640625 C 51.898438 -0.210938 51.207031 0 50.25 0 L 38.53125 0 C 37.570312 0 36.875 -0.210938 36.4375 -0.640625 C 36.007812 -1.066406 35.796875 -1.757812 35.796875 -2.71875 L 35.796875 -14.3125 C 35.796875 -15.414062 35.582031 -16.234375 35.15625 -16.765625 C 34.726562 -17.296875 33.984375 -17.5625 32.921875 -17.5625 L 22.328125 -17.5625 L 22.328125 -2.71875 C 22.328125 -1.757812 22.113281 -1.066406 21.6875 -0.640625 C 21.257812 -0.210938 20.566406 0 19.609375 0 Z M 19.609375 0 "/></g></g></g><g fill="#00ffff" fill-opacity="1"><g transform="translate(195.293301, 213.036022)"><g><path d="M 22.328125 -40.875 L 22.328125 -31.1875 L 28 -31.1875 C 29.3125 -31.1875 30.191406 -31.523438 30.640625 -32.203125 C 31.097656 -32.890625 31.328125 -33.734375 31.328125 -34.734375 L 31.328125 -37.3125 C 31.328125 -38.320312 31.097656 -39.164062 30.640625 -39.84375 C 30.191406 -40.53125 29.3125 -40.875 28 -40.875 Z M 19.609375 0 L 7.953125 0 C 6.992188 0 6.296875 -0.210938 5.859375 -0.640625 C 5.429688 -1.066406 5.21875 -1.757812 5.21875 -2.71875 L 5.21875 -51.765625 C 5.21875 -52.722656 5.429688 -53.414062 5.859375 -53.84375 C 6.296875 -54.28125 6.992188 -54.5 7.953125 -54.5 L 33.15625 -54.5 C 38.800781 -54.5 42.695312 -53.320312 44.84375 -50.96875 C 46.988281 -48.625 48.0625 -45.585938 48.0625 -41.859375 L 48.0625 -38.375 C 48.0625 -36.25 47.742188 -34.441406 47.109375 -32.953125 C 46.484375 -31.472656 45.390625 -30.40625 43.828125 -29.75 C 46.546875 -29.445312 48.75 -28.332031 50.4375 -26.40625 C 52.132812 -24.488281 52.984375 -21.941406 52.984375 -18.765625 L 52.984375 -2.71875 C 52.984375 -1.757812 52.765625 -1.066406 52.328125 -0.640625 C 51.898438 -0.210938 51.207031 0 50.25 0 L 38.53125 0 C 37.570312 0 36.875 -0.210938 36.4375 -0.640625 C 36.007812 -1.066406 35.796875 -1.757812 35.796875 -2.71875 L 35.796875 -14.3125 C 35.796875 -15.414062 35.582031 -16.234375 35.15625 -16.765625 C 34.726562 -17.296875 33.984375 -17.5625 32.921875 -17.5625 L 22.328125 -17.5625 L 22.328125 -2.71875 C 22.328125 -1.757812 22.113281 -1.066406 21.6875 -0.640625 C 21.257812 -0.210938 20.566406 0 19.609375 0 Z M 19.609375 0 "/></g></g></g><g fill="#00ffff" fill-opacity="1"><g transform="translate(251.523248, 213.036022)"><g><path d="M 43.0625 0 L 7.953125 0 C 6.992188 0 6.296875 -0.210938 5.859375 -0.640625 C 5.429688 -1.066406 5.21875 -1.757812 5.21875 -2.71875 L 5.21875 -51.765625 C 5.21875 -52.722656 5.429688 -53.414062 5.859375 -53.84375 C 6.296875 -54.28125 6.992188 -54.5 7.953125 -54.5 L 43.0625 -54.5 C 44.019531 -54.5 44.710938 -54.28125 45.140625 -53.84375 C 45.578125 -53.414062 45.796875 -52.722656 45.796875 -51.765625 L 45.796875 -42.921875 C 45.796875 -41.960938 45.578125 -41.265625 45.140625 -40.828125 C 44.710938 -40.398438 44.019531 -40.1875 43.0625 -40.1875 L 22.171875 -40.1875 L 22.171875 -34.359375 L 36.9375 -34.359375 C 37.894531 -34.359375 38.585938 -34.144531 39.015625 -33.71875 C 39.441406 -33.289062 39.65625 -32.597656 39.65625 -31.640625 L 39.65625 -23.53125 C 39.65625 -22.570312 39.441406 -21.878906 39.015625 -21.453125 C 38.585938 -21.023438 37.894531 -20.8125 36.9375 -20.8125 L 22.171875 -20.8125 L 22.171875 -14.3125 L 43.0625 -14.3125 C 44.019531 -14.3125 44.710938 -14.09375 45.140625 -13.65625 C 45.578125 -13.226562 45.796875 -12.535156 45.796875 -11.578125 L 45.796875 -2.71875 C 45.796875 -1.757812 45.578125 -1.066406 45.140625 -0.640625 C 44.710938 -0.210938 44.019531 0 43.0625 0 Z M 43.0625 0 "/></g></g></g><g fill="#00ffff" fill-opacity="1"><g transform="translate(301.017706, 213.036022)"><g><path d="M 19.296875 0 L 7.953125 0 C 6.992188 0 6.296875 -0.210938 5.859375 -0.640625 C 5.429688 -1.066406 5.21875 -1.757812 5.21875 -2.71875 L 5.21875 -51.765625 C 5.21875 -52.722656 5.429688 -53.414062 5.859375 -53.84375 C 6.296875 -54.28125 6.992188 -54.5 7.953125 -54.5 L 15.8125 -54.5 C 16.769531 -54.5 17.585938 -54.347656 18.265625 -54.046875 C 18.953125 -53.742188 19.625 -53.210938 20.28125 -52.453125 L 34.96875 -35.65625 L 34.96875 -51.765625 C 34.96875 -52.722656 35.179688 -53.414062 35.609375 -53.84375 C 36.035156 -54.28125 36.726562 -54.5 37.6875 -54.5 L 49.046875 -54.5 C 50.003906 -54.5 50.695312 -54.28125 51.125 -53.84375 C 51.550781 -53.414062 51.765625 -52.722656 51.765625 -51.765625 L 51.765625 -2.71875 C 51.765625 -1.757812 51.550781 -1.066406 51.125 -0.640625 C 50.695312 -0.210938 50.003906 0 49.046875 0 L 37.6875 0 C 36.726562 0 36.035156 -0.210938 35.609375 -0.640625 C 35.179688 -1.066406 34.96875 -1.757812 34.96875 -2.71875 L 34.96875 -12.03125 L 22.03125 -27.703125 L 22.03125 -2.71875 C 22.03125 -1.757812 21.8125 -1.066406 21.375 -0.640625 C 20.945312 -0.210938 20.253906 0 19.296875 0 Z M 19.296875 0 "/></g></g></g><g fill="#363fa4" fill-opacity="1"><g transform="translate(18.955469, 214.874986)"><g><path d="M 44.359375 -54.5 L 55.625 -54.5 C 56.582031 -54.5 57.273438 -54.28125 57.703125 -53.84375 C 58.140625 -53.414062 58.359375 -52.722656 58.359375 -51.765625 L 58.359375 -22.40625 C 58.359375 -20.789062 58.289062 -19.285156 58.15625 -17.890625 C 58.03125 -16.503906 57.644531 -14.878906 57 -13.015625 L 53.203125 -2.71875 C 52.953125 -1.96875 52.585938 -1.328125 52.109375 -0.796875 C 51.628906 -0.265625 50.988281 0 50.1875 0 L 40.109375 0 C 39.304688 0 38.578125 -0.175781 37.921875 -0.53125 C 37.265625 -0.882812 36.832031 -1.460938 36.625 -2.265625 L 33.15625 -14.609375 C 33 -15.109375 32.804688 -15.445312 32.578125 -15.625 C 32.359375 -15.800781 32.09375 -15.890625 31.78125 -15.890625 L 31.109375 -15.890625 C 30.804688 -15.890625 30.539062 -15.800781 30.3125 -15.625 C 30.082031 -15.445312 29.894531 -15.109375 29.75 -14.609375 L 26.1875 -2.265625 C 25.988281 -1.515625 25.609375 -0.945312 25.046875 -0.5625 C 24.492188 -0.1875 23.816406 0 23.015625 0 L 13.015625 0 C 12.210938 0 11.519531 -0.25 10.9375 -0.75 C 10.351562 -1.257812 9.9375 -1.914062 9.6875 -2.71875 L 5.90625 -13.171875 C 5.25 -15.035156 4.859375 -16.660156 4.734375 -18.046875 C 4.609375 -19.441406 4.546875 -20.945312 4.546875 -22.5625 L 4.546875 -51.765625 C 4.546875 -52.722656 4.757812 -53.414062 5.1875 -53.84375 C 5.613281 -54.28125 6.304688 -54.5 7.265625 -54.5 L 18.921875 -54.5 C 19.878906 -54.5 20.570312 -54.28125 21 -53.84375 C 21.425781 -53.414062 21.640625 -52.722656 21.640625 -51.765625 L 21.640625 -23.921875 L 26.03125 -33.453125 C 26.4375 -34.304688 26.96875 -34.910156 27.625 -35.265625 C 28.28125 -35.617188 29.085938 -35.796875 30.046875 -35.796875 L 33.234375 -35.796875 C 34.191406 -35.796875 34.992188 -35.617188 35.640625 -35.265625 C 36.296875 -34.910156 36.828125 -34.304688 37.234375 -33.453125 L 41.625 -23.921875 L 41.625 -51.765625 C 41.625 -52.722656 41.835938 -53.414062 42.265625 -53.84375 C 42.703125 -54.28125 43.398438 -54.5 44.359375 -54.5 Z M 44.359375 -54.5 "/></g></g></g><g fill="#363fa4" fill-opacity="1"><g transform="translate(81.845213, 214.874986)"><g><path d="M 24.984375 -38.59375 L 21.421875 -27.09375 L 33.296875 -27.09375 L 29.75 -38.59375 C 29.539062 -39.050781 29.320312 -39.378906 29.09375 -39.578125 C 28.875 -39.785156 28.613281 -39.890625 28.3125 -39.890625 L 26.421875 -39.890625 C 26.109375 -39.890625 25.835938 -39.785156 25.609375 -39.578125 C 25.390625 -39.378906 25.179688 -39.050781 24.984375 -38.59375 Z M 20.65625 -2.71875 C 20.65625 -1.757812 20.441406 -1.066406 20.015625 -0.640625 C 19.585938 -0.210938 18.894531 0 17.9375 0 L 6.8125 0 C 5.851562 0 5.160156 -0.210938 4.734375 -0.640625 C 4.304688 -1.066406 4.09375 -1.757812 4.09375 -2.71875 L 4.09375 -22.703125 C 4.09375 -24.222656 4.332031 -25.960938 4.8125 -27.921875 C 5.289062 -29.890625 6.03125 -32.1875 7.03125 -34.8125 L 13.625 -52 C 13.925781 -52.851562 14.390625 -53.484375 15.015625 -53.890625 C 15.648438 -54.296875 16.472656 -54.5 17.484375 -54.5 L 37.84375 -54.5 C 38.800781 -54.5 39.59375 -54.296875 40.21875 -53.890625 C 40.851562 -53.484375 41.320312 -52.851562 41.625 -52 L 48.21875 -34.8125 C 49.226562 -32.1875 49.972656 -29.890625 50.453125 -27.921875 C 50.929688 -25.960938 51.171875 -24.222656 51.171875 -22.703125 L 51.171875 -2.71875 C 51.171875 -1.757812 50.953125 -1.066406 50.515625 -0.640625 C 50.085938 -0.210938 49.394531 0 48.4375 0 L 37.015625 0 C 36.003906 0 35.257812 -0.210938 34.78125 -0.640625 C 34.300781 -1.066406 34.0625 -1.757812 34.0625 -2.71875 L 34.0625 -13.328125 L 20.65625 -13.328125 Z M 20.65625 -2.71875 "/></g></g></g><g fill="#363fa4" fill-opacity="1"><g transform="translate(137.091322, 214.874986)"><g><path d="M 22.328125 -40.875 L 22.328125 -31.1875 L 28 -31.1875 C 29.3125 -31.1875 30.191406 -31.523438 30.640625 -32.203125 C 31.097656 -32.890625 31.328125 -33.734375 31.328125 -34.734375 L 31.328125 -37.3125 C 31.328125 -38.320312 31.097656 -39.164062 30.640625 -39.84375 C 30.191406 -40.53125 29.3125 -40.875 28 -40.875 Z M 19.609375 0 L 7.953125 0 C 6.992188 0 6.296875 -0.210938 5.859375 -0.640625 C 5.429688 -1.066406 5.21875 -1.757812 5.21875 -2.71875 L 5.21875 -51.765625 C 5.21875 -52.722656 5.429688 -53.414062 5.859375 -53.84375 C 6.296875 -54.28125 6.992188 -54.5 7.953125 -54.5 L 33.15625 -54.5 C 38.800781 -54.5 42.695312 -53.320312 44.84375 -50.96875 C 46.988281 -48.625 48.0625 -45.585938 48.0625 -41.859375 L 48.0625 -38.375 C 48.0625 -36.25 47.742188 -34.441406 47.109375 -32.953125 C 46.484375 -31.472656 45.390625 -30.40625 43.828125 -29.75 C 46.546875 -29.445312 48.75 -28.332031 50.4375 -26.40625 C 52.132812 -24.488281 52.984375 -21.941406 52.984375 -18.765625 L 52.984375 -2.71875 C 52.984375 -1.757812 52.765625 -1.066406 52.328125 -0.640625 C 51.898438 -0.210938 51.207031 0 50.25 0 L 38.53125 0 C 37.570312 0 36.875 -0.210938 36.4375 -0.640625 C 36.007812 -1.066406 35.796875 -1.757812 35.796875 -2.71875 L 35.796875 -14.3125 C 35.796875 -15.414062 35.582031 -16.234375 35.15625 -16.765625 C 34.726562 -17.296875 33.984375 -17.5625 32.921875 -17.5625 L 22.328125 -17.5625 L 22.328125 -2.71875 C 22.328125 -1.757812 22.113281 -1.066406 21.6875 -0.640625 C 21.257812 -0.210938 20.566406 0 19.609375 0 Z M 19.609375 0 "/></g></g></g><g fill="#363fa4" fill-opacity="1"><g transform="translate(193.321257, 214.874986)"><g><path d="M 22.328125 -40.875 L 22.328125 -31.1875 L 28 -31.1875 C 29.3125 -31.1875 30.191406 -31.523438 30.640625 -32.203125 C 31.097656 -32.890625 31.328125 -33.734375 31.328125 -34.734375 L 31.328125 -37.3125 C 31.328125 -38.320312 31.097656 -39.164062 30.640625 -39.84375 C 30.191406 -40.53125 29.3125 -40.875 28 -40.875 Z M 19.609375 0 L 7.953125 0 C 6.992188 0 6.296875 -0.210938 5.859375 -0.640625 C 5.429688 -1.066406 5.21875 -1.757812 5.21875 -2.71875 L 5.21875 -51.765625 C 5.21875 -52.722656 5.429688 -53.414062 5.859375 -53.84375 C 6.296875 -54.28125 6.992188 -54.5 7.953125 -54.5 L 33.15625 -54.5 C 38.800781 -54.5 42.695312 -53.320312 44.84375 -50.96875 C 46.988281 -48.625 48.0625 -45.585938 48.0625 -41.859375 L 48.0625 -38.375 C 48.0625 -36.25 47.742188 -34.441406 47.109375 -32.953125 C 46.484375 -31.472656 45.390625 -30.40625 43.828125 -29.75 C 46.546875 -29.445312 48.75 -28.332031 50.4375 -26.40625 C 52.132812 -24.488281 52.984375 -21.941406 52.984375 -18.765625 L 52.984375 -2.71875 C 52.984375 -1.757812 52.765625 -1.066406 52.328125 -0.640625 C 51.898438 -0.210938 51.207031 0 50.25 0 L 38.53125 0 C 37.570312 0 36.875 -0.210938 36.4375 -0.640625 C 36.007812 -1.066406 35.796875 -1.757812 35.796875 -2.71875 L 35.796875 -14.3125 C 35.796875 -15.414062 35.582031 -16.234375 35.15625 -16.765625 C 34.726562 -17.296875 33.984375 -17.5625 32.921875 -17.5625 L 22.328125 -17.5625 L 22.328125 -2.71875 C 22.328125 -1.757812 22.113281 -1.066406 21.6875 -0.640625 C 21.257812 -0.210938 20.566406 0 19.609375 0 Z M 19.609375 0 "/></g></g></g><g fill="#363fa4" fill-opacity="1"><g transform="translate(249.551204, 214.874986)"><g><path d="M 43.0625 0 L 7.953125 0 C 6.992188 0 6.296875 -0.210938 5.859375 -0.640625 C 5.429688 -1.066406 5.21875 -1.757812 5.21875 -2.71875 L 5.21875 -51.765625 C 5.21875 -52.722656 5.429688 -53.414062 5.859375 -53.84375 C 6.296875 -54.28125 6.992188 -54.5 7.953125 -54.5 L 43.0625 -54.5 C 44.019531 -54.5 44.710938 -54.28125 45.140625 -53.84375 C 45.578125 -53.414062 45.796875 -52.722656 45.796875 -51.765625 L 45.796875 -42.921875 C 45.796875 -41.960938 45.578125 -41.265625 45.140625 -40.828125 C 44.710938 -40.398438 44.019531 -40.1875 43.0625 -40.1875 L 22.171875 -40.1875 L 22.171875 -34.359375 L 36.9375 -34.359375 C 37.894531 -34.359375 38.585938 -34.144531 39.015625 -33.71875 C 39.441406 -33.289062 39.65625 -32.597656 39.65625 -31.640625 L 39.65625 -23.53125 C 39.65625 -22.570312 39.441406 -21.878906 39.015625 -21.453125 C 38.585938 -21.023438 37.894531 -20.8125 36.9375 -20.8125 L 22.171875 -20.8125 L 22.171875 -14.3125 L 43.0625 -14.3125 C 44.019531 -14.3125 44.710938 -14.09375 45.140625 -13.65625 C 45.578125 -13.226562 45.796875 -12.535156 45.796875 -11.578125 L 45.796875 -2.71875 C 45.796875 -1.757812 45.578125 -1.066406 45.140625 -0.640625 C 44.710938 -0.210938 44.019531 0 43.0625 0 Z M 43.0625 0 "/></g></g></g><g fill="#363fa4" fill-opacity="1"><g transform="translate(299.045662, 214.874986)"><g><path d="M 19.296875 0 L 7.953125 0 C 6.992188 0 6.296875 -0.210938 5.859375 -0.640625 C 5.429688 -1.066406 5.21875 -1.757812 5.21875 -2.71875 L 5.21875 -51.765625 C 5.21875 -52.722656 5.429688 -53.414062 5.859375 -53.84375 C 6.296875 -54.28125 6.992188 -54.5 7.953125 -54.5 L 15.8125 -54.5 C 16.769531 -54.5 17.585938 -54.347656 18.265625 -54.046875 C 18.953125 -53.742188 19.625 -53.210938 20.28125 -52.453125 L 34.96875 -35.65625 L 34.96875 -51.765625 C 34.96875 -52.722656 35.179688 -53.414062 35.609375 -53.84375 C 36.035156 -54.28125 36.726562 -54.5 37.6875 -54.5 L 49.046875 -54.5 C 50.003906 -54.5 50.695312 -54.28125 51.125 -53.84375 C 51.550781 -53.414062 51.765625 -52.722656 51.765625 -51.765625 L 51.765625 -2.71875 C 51.765625 -1.757812 51.550781 -1.066406 51.125 -0.640625 C 50.695312 -0.210938 50.003906 0 49.046875 0 L 37.6875 0 C 36.726562 0 36.035156 -0.210938 35.609375 -0.640625 C 35.179688 -1.066406 34.96875 -1.757812 34.96875 -2.71875 L 34.96875 -12.03125 L 22.03125 -27.703125 L 22.03125 -2.71875 C 22.03125 -1.757812 21.8125 -1.066406 21.375 -0.640625 C 20.945312 -0.210938 20.253906 0 19.296875 0 Z M 19.296875 0 "/></g></g></g></svg>